<?xml version="1.0" standalone="no"?><!DOCTYPE svg PUBLIC "-//W3C//DTD SVG 1.1//EN" "http://www.w3.org/Graphics/SVG/1.1/DTD/svg11.dtd"><svg t="1640719079078" class="icon" viewBox="0 0 1024 1024" version="1.1" xmlns="http://www.w3.org/2000/svg" p-id="8005" xmlns:xlink="http://www.w3.org/1999/xlink" width="200" height="200"><defs><style type="text/css"></style></defs><path d="M736 192c17.664 0 32 14.336 32 32s-14.336 32-32 32h-64c-17.6 0-32 14.4-32 32s14.4 32 32 32c17.664 0 32 14.336 32 32s-14.336 32-32 32c-52.928 0-96-43.072-96-96 0-41.664 26.816-76.864 64-90.112V160c0-17.664 14.336-32 32-32s32 14.336 32 32v32h32zM672 0c194.048 0 352 157.952 352 352 0 77.504-24.384 150.592-70.528 211.328a31.872 31.872 0 0 1-44.736 6.144 31.904 31.904 0 0 1-6.208-44.8C940.096 475.072 960 415.36 960 352c0-158.784-129.216-288-288-288S384 193.216 384 352c0 17.664-14.336 32-32 32s-32-14.336-32-32C320 157.952 477.952 0 672 0z m96 448c35.328 0 64 28.672 64 64v448c0 35.328-28.672 64-64 64H64c-35.328 0-64-28.672-64-64V512c0-35.328 28.672-64 64-64h704z m0 64h-58.112A95.744 95.744 0 0 0 768 570.112V512zM64 512v58.112A95.744 95.744 0 0 0 122.112 512H64z m0 448h58.112A95.744 95.744 0 0 0 64 901.888V960z m579.264 0C656 897.408 705.408 848 768 835.2V636.736C705.408 624 656 574.592 643.2 512H188.736C176 574.592 126.592 624 64 636.736v198.528C126.592 848 176 897.408 188.736 960h454.528zM768 992l0.064-32H768v-58.112A95.744 95.744 0 0 0 709.888 960H768v32zM416 640c52.928 0 96 43.072 96 96s-43.072 96-96 96-96-43.072-96-96 43.072-96 96-96z m0 128c17.6 0 32-14.4 32-32s-14.4-32-32-32-32 14.4-32 32 14.4 32 32 32z" fill="#20A0FF" p-id="8006"></path></svg>