<?xml version="1.0" encoding="iso-8859-1"?>
<!-- Generator: Adobe Illustrator 19.0.0, SVG Export Plug-In . SVG Version: 6.00 Build 0)  -->
<svg version="1.1" id="Capa_1" xmlns="http://www.w3.org/2000/svg" xmlns:xlink="http://www.w3.org/1999/xlink" x="0px" y="0px"
	 viewBox="0 0 511.999 511.999" style="enable-background:new 0 0 511.999 511.999;" xml:space="preserve">
<polygon style="fill:#FFDC64;" points="88.75,252.812 88.75,284.548 88.75,504.999 423.75,504.999 423.75,284.548 423.75,252.812 
	"/>
<path style="fill:#9B735A;" d="M371.184,138.045c-1.563-2.516-4.315-4.046-7.278-4.046H329.84H182.66h-30.17
	c-2.901,0-5.606,1.468-7.186,3.902L54.33,277.999h403.82L371.184,138.045z"/>
<path style="fill:#704530;" d="M264.817,133.999H219h-36.34h-30.17c-2.901,0-5.606,1.468-7.186,3.902l-30.723,47.312l0,0
	L54.33,277.999h66.51l38.873-59.863c3.863-5.949,10.718-9.295,17.775-8.578c35.269,3.583,72.016-0.392,78.478-1.155
	c3.684-0.435,6.586-3.346,7.009-7.032l0,0C263.64,195.584,266.802,165.525,264.817,133.999z"/>
<path style="fill:#FF507D;" d="M251.285,207.29c-8.55-6.765-83.535-67.37-83.535-111.791c0-48.799,39.701-88.5,88.5-88.5
	s88.5,39.701,88.5,88.5c0,44.381-74.986,105.021-83.536,111.789l0,0C258.305,209.591,254.195,209.592,251.285,207.29L251.285,207.29
	z"/>
<path style="fill:#EF1846;" d="M302.029,44.72c-13.24-13.24-30.833-19.525-48.214-18.874c-3.81,0.143-6.253-4.013-4.326-7.303
	l2.208-3.771c2.009-3.43-0.732-7.707-4.686-7.295c-44.473,4.635-79.261,42.342-79.261,88.022
	c0,44.421,74.985,105.026,83.535,111.791c0.6,0.475,1.259,0.827,1.941,1.106l-17.38-48.525c-1.297-3.621,1.927-7.229,5.674-6.359
	c21.067,4.892,44.123-0.847,60.51-17.234C327.271,111.036,327.272,69.963,302.029,44.72z"/>
<path style="fill:#FFFFFF;" d="M256.25,131.999c-22.883,0-41.5-18.617-41.5-41.5s18.617-41.5,41.5-41.5s41.5,18.617,41.5,41.5
	S279.133,131.999,256.25,131.999z"/>
<path style="fill:#FFC850;" d="M423.75,337.879H153.985c-5.653,0-10.235-4.583-10.235-10.235l0,0v-25.531h-55v25.531v10.235v129.24
	v37.88h55v-24.816c0-7.215,5.849-13.064,13.064-13.064H423.75V337.879z"/>
<path style="fill:#9B735A;" d="M299.75,504.999v-47c0-22.056,17.944-40,40-40s40,17.944,40,40v47H299.75z"/>
<path style="fill:#704530;" d="M339.75,417.999c-22.056,0-40,17.944-40,40v27.346c0-22.056,17.944-40,40-40s40,17.944,40,40v-27.346
	C379.75,435.943,361.806,417.999,339.75,417.999z"/>
<g>
	<path style="fill:#00C3FF;" d="M116.75,434.091v-51.184c0-2.158,1.75-3.908,3.908-3.908h51.184c2.158,0,3.908,1.75,3.908,3.908
		v51.184c0,2.158-1.75,3.908-3.908,3.908h-51.184C118.5,437.999,116.75,436.249,116.75,434.091z"/>
	<path style="fill:#00C3FF;" d="M201.75,434.091v-51.184c0-2.158,1.75-3.908,3.908-3.908h51.184c2.158,0,3.908,1.75,3.908,3.908
		v51.184c0,2.158-1.75,3.908-3.908,3.908h-51.184C203.5,437.999,201.75,436.249,201.75,434.091z"/>
</g>
<polygon style="fill:#704530;" points="292.886,385.999 287.724,369.999 292.886,353.999 387.614,353.999 392.776,369.999 
	387.614,385.999 "/>
<path style="fill:#0098FF;" d="M423.248,327.679l-1.181,0.299l-1.361-0.12c-17.358-1.552-30.955-16.424-30.955-33.858v-17l68.399,1
	l-0.399,16c0,17.962-14.04,32.868-31.963,33.936l-1.36,0.08L423.248,327.679z"/>
<path style="fill:#00C3FF;" d="M356.75,327.999c-18.748,0-34-15.252-34-34v-17h68v17C390.75,312.747,375.498,327.999,356.75,327.999
	z"/>
<path style="fill:#0098FF;" d="M289.75,327.999c-18.748,0-34-15.252-34-34v-17h68v17C323.75,312.747,308.498,327.999,289.75,327.999
	z"/>
<path style="fill:#00C3FF;" d="M222.75,327.999c-18.748,0-34-15.252-34-34v-17h68v17C256.75,312.747,241.498,327.999,222.75,327.999
	z"/>
<path style="fill:#0098FF;" d="M155.75,327.999c-18.748,0-34-15.252-34-34v-17h68v17C189.75,312.747,174.498,327.999,155.75,327.999
	z"/>
<path style="fill:#00C3FF;" d="M88.75,327.999c-18.748,0-34-15.252-34-34l-0.42-16l68.42-1v17
	C122.75,312.747,107.498,327.999,88.75,327.999z"/>
<g>
	<path style="fill:#0098FF;" d="M119.75,432.656v-19.313c0-1.294,1.049-2.343,2.343-2.343h19.313c1.294,0,2.343,1.049,2.343,2.343
		v19.313c0,1.294-1.049,2.343-2.343,2.343h-19.313C120.799,434.999,119.75,433.95,119.75,432.656z"/>
	<path style="fill:#0098FF;" d="M148.75,432.656v-19.313c0-1.294,1.049-2.343,2.343-2.343h19.313c1.294,0,2.343,1.049,2.343,2.343
		v19.313c0,1.294-1.049,2.343-2.343,2.343h-19.313C149.799,434.999,148.75,433.95,148.75,432.656z"/>
	<path style="fill:#0098FF;" d="M119.75,403.656v-19.313c0-1.294,1.049-2.343,2.343-2.343h19.313c1.294,0,2.343,1.049,2.343,2.343
		v19.313c0,1.294-1.049,2.343-2.343,2.343h-19.313C120.799,405.999,119.75,404.95,119.75,403.656z"/>
	<path style="fill:#0098FF;" d="M148.75,403.656v-19.313c0-1.294,1.049-2.343,2.343-2.343h19.313c1.294,0,2.343,1.049,2.343,2.343
		v19.313c0,1.294-1.049,2.343-2.343,2.343h-19.313C149.799,405.999,148.75,404.95,148.75,403.656z"/>
	<path style="fill:#0098FF;" d="M204.75,432.314v-18.631c0-1.483,1.202-2.685,2.685-2.685h18.631c1.483,0,2.685,1.202,2.685,2.685
		v18.631c0,1.483-1.202,2.685-2.685,2.685h-18.631C205.952,434.999,204.75,433.797,204.75,432.314z"/>
	<path style="fill:#0098FF;" d="M233.75,432.314v-18.631c0-1.483,1.202-2.685,2.685-2.685h18.631c1.483,0,2.685,1.202,2.685,2.685
		v18.631c0,1.483-1.202,2.685-2.685,2.685h-18.631C234.952,434.999,233.75,433.797,233.75,432.314z"/>
	<path style="fill:#0098FF;" d="M204.75,403.314v-18.631c0-1.483,1.202-2.685,2.685-2.685h18.631c1.483,0,2.685,1.202,2.685,2.685
		v18.631c0,1.483-1.202,2.685-2.685,2.685h-18.631C205.952,405.999,204.75,404.797,204.75,403.314z"/>
	<path style="fill:#0098FF;" d="M233.75,403.314v-18.631c0-1.483,1.202-2.685,2.685-2.685h18.631c1.483,0,2.685,1.202,2.685,2.685
		v18.631c0,1.483-1.202,2.685-2.685,2.685h-18.631C234.952,405.999,233.75,404.797,233.75,403.314z"/>
</g>
<path d="M456.436,496.999H430.75v-70.048c0-4.142-3.358-7.5-7.5-7.5l0,0c-4.142,0-7.5,3.358-7.5,7.5v70.048h-29v-38.211
	c0-25.736-20.36-47.292-46.092-47.78c-26.33-0.499-47.908,20.773-47.908,46.991v39h-196V334.21
	c10.488-2.083,19.541-8.182,25.5-16.617c7.43,10.518,19.672,17.406,33.5,17.406s26.07-6.888,33.5-17.406
	c7.43,10.518,19.672,17.406,33.5,17.406s26.07-6.888,33.5-17.406c7.43,10.518,19.672,17.406,33.5,17.406s26.07-6.888,33.5-17.406
	c7.43,10.518,19.672,17.406,33.5,17.406s26.07-6.888,33.5-17.406c5.959,8.436,15.012,14.534,25.5,16.617v49.081
	c0,4.142,3.358,7.5,7.5,7.5l0,0c4.142,0,7.5-3.358,7.5-7.5v-48.902c19.283-3.333,34-20.169,34-40.39v-16.5
	c0-0.035-0.005-0.069-0.005-0.104c-0.001-0.086-0.009-0.17-0.013-0.256c-0.011-0.225-0.03-0.447-0.06-0.666
	c-0.012-0.086-0.024-0.171-0.039-0.256c-0.044-0.258-0.101-0.511-0.171-0.759c-0.011-0.038-0.018-0.076-0.029-0.113
	c-0.089-0.299-0.198-0.588-0.322-0.87c-0.02-0.045-0.043-0.088-0.064-0.132c-0.112-0.24-0.235-0.472-0.371-0.697
	c-0.021-0.034-0.035-0.071-0.056-0.104l-88.859-143c-1.368-2.203-3.777-3.542-6.37-3.542h-25.408
	c5.41-10.671,8.767-21.368,8.767-31.5c0-52.659-42.841-95.5-95.5-95.5s-95.5,42.841-95.5,95.5c0,10.132,3.356,20.829,8.767,31.5
	h-21.408c-2.54,0-4.907,1.285-6.29,3.415l-92.859,143c-0.02,0.031-0.034,0.065-0.054,0.098c-0.141,0.223-0.269,0.455-0.386,0.693
	c-0.03,0.062-0.061,0.124-0.09,0.186c-0.251,0.55-0.439,1.135-0.551,1.748c-0.014,0.076-0.023,0.151-0.035,0.227
	c-0.034,0.222-0.058,0.447-0.072,0.675c-0.006,0.094-0.012,0.188-0.014,0.282c-0.001,0.06-0.009,0.117-0.009,0.177v16.498
	c0,20.22,14.717,37.057,34,40.39v162.61H55.064c-4.107,0-7.688,3.165-7.811,7.27c-0.127,4.247,3.278,7.73,7.497,7.73h402
	c4.218,0,7.623-3.482,7.497-7.73C464.124,500.164,460.543,496.999,456.436,496.999z M181.75,293.999c0,14.337-11.664,26-26,26
	s-26-11.663-26-26v-9h52V293.999z M248.75,293.999c0,14.337-11.664,26-26,26s-26-11.663-26-26v-9h52V293.999z M315.75,293.999
	c0,14.337-11.664,26-26,26s-26-11.663-26-26v-9h52V293.999z M382.75,293.999c0,14.337-11.664,26-26,26s-26-11.663-26-26v-9h52
	V293.999z M449.75,293.999c0,13.813-10.827,25.138-24.439,25.949c-0.656-0.188-1.345-0.294-2.061-0.294
	c-0.633,0-1.245,0.087-1.832,0.235c-13.247-1.184-23.668-12.34-23.668-25.89v-9h52V293.999z M256.25,14.999
	c44.388,0,80.5,36.112,80.5,80.5c0,34.616-54.402,84.856-80.501,105.517c-26.102-20.65-80.499-70.867-80.499-105.517
	C175.75,51.111,211.862,14.999,256.25,14.999z M152.181,141.999h26.217c25.703,38.238,70.69,72.491,73.335,74.487
	c1.337,1.009,2.927,1.513,4.518,1.513s3.181-0.504,4.518-1.513c2.645-1.996,47.632-36.249,73.335-74.487h30.12l79.538,128H69.063
	L152.181,141.999z M88.75,319.999c-14.336,0-26-11.663-26-26v-9h52v9C114.75,308.336,103.086,319.999,88.75,319.999z
	 M371.75,496.999h-64v-39c0-17.645,14.355-32,32-32s32,14.355,32,32V496.999z"/>
<path d="M387.25,346.999h-94c-3.255,0-6.139,2.1-7.138,5.197l-5,15.5c-0.483,1.497-0.483,3.108,0,4.605l5,15.5
	c0.999,3.098,3.883,5.197,7.138,5.197h94c3.255,0,6.139-2.1,7.138-5.197l5-15.5c0.483-1.497,0.483-3.108,0-4.605l-5-15.5
	C393.389,349.099,390.505,346.999,387.25,346.999z M381.789,377.999h-83.077l-2.581-8l2.581-8h83.077l2.581,8L381.789,377.999z"/>
<path d="M175.25,371.999h-58c-4.142,0-7.5,3.357-7.5,7.5v58c0,4.143,3.358,7.5,7.5,7.5h58c4.142,0,7.5-3.357,7.5-7.5v-58
	C182.75,375.356,179.392,371.999,175.25,371.999z M138.75,429.999h-14v-14h14V429.999z M138.75,400.999h-14v-14h14V400.999z
	 M167.75,429.999h-14v-14h14V429.999z M167.75,400.999h-14v-14h14V400.999z"/>
<path d="M260.25,371.999h-58c-4.142,0-7.5,3.357-7.5,7.5v58c0,4.143,3.358,7.5,7.5,7.5h58c4.142,0,7.5-3.357,7.5-7.5v-58
	C267.75,375.356,264.392,371.999,260.25,371.999z M223.75,429.999h-14v-14h14V429.999z M223.75,400.999h-14v-14h14V400.999z
	 M252.75,429.999h-14v-14h14V429.999z M252.75,400.999h-14v-14h14V400.999z"/>
<path d="M304.75,90.499c0-26.743-21.757-48.5-48.5-48.5s-48.5,21.757-48.5,48.5s21.757,48.5,48.5,48.5S304.75,117.242,304.75,90.499
	z M222.75,90.499c0-18.472,15.028-33.5,33.5-33.5s33.5,15.028,33.5,33.5s-15.028,33.5-33.5,33.5S222.75,108.971,222.75,90.499z"/>
<circle cx="321.25" cy="468.499" r="8"/>
<g>
</g>
<g>
</g>
<g>
</g>
<g>
</g>
<g>
</g>
<g>
</g>
<g>
</g>
<g>
</g>
<g>
</g>
<g>
</g>
<g>
</g>
<g>
</g>
<g>
</g>
<g>
</g>
<g>
</g>
</svg>
