<?xml version="1.0" encoding="iso-8859-1"?>
<!-- Generator: Adobe Illustrator 19.0.0, SVG Export Plug-In . SVG Version: 6.00 Build 0)  -->
<svg version="1.1" id="Layer_1" xmlns="http://www.w3.org/2000/svg" xmlns:xlink="http://www.w3.org/1999/xlink" x="0px" y="0px"
	 viewBox="0 0 512 512" style="enable-background:new 0 0 512 512;" xml:space="preserve">
<path style="fill:#9BCC5C;" d="M111.242,91.577c-0.937,0.933-2.085,1.66-3.368,2.113c-22.061,7.791-46.943,2.286-63.394-14.031
	c-16.448-16.313-21.996-40.998-14.143-62.88c0.457-1.273,1.192-2.41,2.13-3.339c0.937-0.932,2.085-1.659,3.367-2.113
	c22.064-7.793,46.949-2.286,63.393,14.03c16.451,16.315,22.002,40.998,14.145,62.882C112.916,89.511,112.183,90.647,111.242,91.577z
	"/>
<path style="fill:#C6DD76;" d="M155.587,91.577c0.938,0.933,2.082,1.66,3.368,2.113c22.061,7.791,46.946,2.286,63.394-14.031
	c16.445-16.313,21.997-40.998,14.14-62.88c-0.452-1.273-1.189-2.41-2.128-3.339c-0.939-0.932-2.085-1.659-3.365-2.113
	c-22.064-7.793-46.95-2.286-63.395,14.03c-16.448,16.315-22.002,40.998-14.145,62.882C153.914,89.511,154.645,90.647,155.587,91.577
	z"/>
<path style="opacity:0.1;enable-background:new    ;" d="M65.721,79.66C49.273,63.346,43.724,38.661,51.578,16.779
	c0.457-1.273,1.192-2.41,2.13-3.339c0.937-0.932,2.085-1.659,3.367-2.113c3.221-1.138,6.504-1.983,9.811-2.562
	c-10.22-1.781-20.931-1.011-31.051,2.562c-1.282,0.453-2.428,1.18-3.367,2.113c-0.937,0.931-1.673,2.067-2.13,3.339
	c-7.853,21.882-2.305,46.567,14.144,62.881c14.05,13.935,34.248,19.975,53.588,16.592C86.005,94.149,74.626,88.492,65.721,79.66z"/>
<path style="opacity:0.1;enable-background:new    ;" d="M180.193,93.691c-1.285-0.453-2.428-1.181-3.368-2.113
	c-0.941-0.931-1.673-2.066-2.131-3.338c-7.858-21.883-2.303-46.566,14.145-62.882c8.903-8.834,20.28-14.491,32.344-16.592
	c-19.341-3.383-39.54,2.658-53.583,16.592c-16.448,16.315-22.002,40.998-14.145,62.882c0.459,1.274,1.189,2.408,2.131,3.338
	c0.938,0.933,2.082,1.66,3.368,2.113c10.118,3.573,20.828,4.342,31.047,2.561C186.696,95.673,183.414,94.828,180.193,93.691z"/>
<path style="fill:#474949;" d="M417.298,192.262c0,3.593-2.965,6.269-6.591,6.269l-36.907-21.08c-3.626,0-6.591-2.94-6.591-6.534
	v-70.569c0-3.593,2.965-6.535,6.591-6.535h36.907c3.626,0,6.591,2.94,6.591,6.535L417.298,192.262L417.298,192.262z"/>
<polygon style="fill:#87AFA3;" points="416.909,484.587 104.509,484.587 104.509,194.468 264.354,92.997 416.909,194.468 "/>
<polygon style="opacity:0.1;enable-background:new    ;" points="126.452,452.164 126.452,179.9 104.509,194.468 104.509,484.587 
	416.909,484.587 416.909,452.164 "/>
<g>
	<rect x="328.098" y="338.547" style="fill:#FFD267;" width="47.449" height="78.409"/>
	<rect x="143.757" y="338.547" style="fill:#FFD267;" width="47.449" height="78.409"/>
</g>
<g>
	<rect x="328.098" y="251.162" style="fill:#FFFFFF;" width="47.449" height="49.131"/>
	<rect x="237.369" y="251.162" style="fill:#FFFFFF;" width="47.449" height="49.131"/>
	<rect x="143.757" y="251.162" style="fill:#FFFFFF;" width="47.449" height="49.131"/>
</g>
<path style="fill:#EA5653;" d="M465.391,258.476c-3.885,0-7.655-1.126-10.904-3.259L264.138,130.28L67.469,255.372
	c-3.193,2.031-6.881,3.104-10.664,3.104c-6.773,0-12.999-3.372-16.654-9.018c-5.887-9.098-3.21-21.248,5.965-27.084L253.634,90.383
	c3.194-2.03,6.885-3.104,10.677-3.104c3.894,0,7.669,1.127,10.915,3.258L476.32,222.528c9.09,5.966,11.59,18.153,5.572,27.165
	C478.216,255.194,472.049,258.476,465.391,258.476z"/>
<path style="opacity:0.1;enable-background:new    ;" d="M481.891,228.244c-3.675,5.501-9.842,8.782-16.5,8.782
	c-3.885,0-7.655-1.126-10.904-3.259L264.138,108.83L67.469,233.923c-3.193,2.031-6.881,3.104-10.664,3.104
	c-6.711,0-12.882-3.313-16.549-8.867c-4.117,6.267-4.436,14.605-0.104,21.298c3.655,5.647,9.881,9.018,16.654,9.018
	c3.784,0,7.471-1.072,10.664-3.104L264.14,130.28l190.349,124.937c3.248,2.133,7.019,3.259,10.904,3.259
	c6.658,0,12.826-3.282,16.5-8.782c4.484-6.716,4.233-15.19,0.056-21.543C481.927,228.181,481.911,228.214,481.891,228.244z"/>
<rect x="217.339" y="339.498" style="fill:#EA5653;" width="85.128" height="143.757"/>
<rect x="71.126" y="474.164" style="fill:#5D897D;" width="379.946" height="30.003"/>
<rect x="71.126" y="474.164" style="opacity:0.1;enable-background:new    ;" width="43.812" height="30.003"/>
<path d="M375.546,330.71h-47.453c-4.328,0-7.837,3.509-7.837,7.837v78.411c0,4.328,3.509,7.837,7.837,7.837h47.453
	c4.328,0,7.837-3.509,7.837-7.837v-78.411C383.382,334.219,379.875,330.71,375.546,330.71z M367.709,409.122h-31.78v-62.739h31.78
	V409.122z"/>
<path d="M191.211,330.71h-47.453c-4.328,0-7.837,3.509-7.837,7.837v78.411c0,4.328,3.509,7.837,7.837,7.837h47.453
	c4.328,0,7.837-3.509,7.837-7.837v-78.411C199.048,334.219,195.539,330.71,191.211,330.71z M183.374,409.122h-31.78v-62.739h31.78
	V409.122z"/>
<path d="M375.546,243.322h-47.453c-4.328,0-7.837,3.509-7.837,7.837v49.136c0,4.328,3.509,7.837,7.837,7.837h47.453
	c4.328,0,7.837-3.509,7.837-7.837v-49.136C383.382,246.831,379.875,243.322,375.546,243.322z M367.709,292.459h-31.78v-33.463h31.78
	V292.459z"/>
<path d="M284.824,243.322h-47.453c-4.328,0-7.837,3.509-7.837,7.837v49.136c0,4.328,3.509,7.837,7.837,7.837h47.453
	c4.328,0,7.837-3.509,7.837-7.837v-49.136C292.661,246.831,289.152,243.322,284.824,243.322z M276.988,292.459h-31.78v-33.463h31.78
	V292.459z"/>
<path d="M191.211,243.322h-47.453c-4.328,0-7.837,3.509-7.837,7.837v49.136c0,4.328,3.509,7.837,7.837,7.837h47.453
	c4.328,0,7.837-3.509,7.837-7.837v-49.136C199.048,246.831,195.539,243.322,191.211,243.322z M183.374,292.459h-31.78v-33.463h31.78
	V292.459z"/>
<path d="M280.568,388.12c-4.328,0-7.837,3.509-7.837,7.837v20.387c0,4.328,3.509,7.837,7.837,7.837s7.837-3.509,7.837-7.837v-20.387
	C288.405,391.629,284.897,388.12,280.568,388.12z"/>
<path d="M492.456,233.44c-1.467-7.214-5.671-13.415-11.838-17.463l-55.484-36.418v-79.21c0-7.925-6.472-14.372-14.428-14.372
	h-36.907c-7.956,0-14.428,6.447-14.428,14.372v36.046l-79.848-52.41c-4.53-2.972-9.791-4.543-15.215-4.543
	c-5.283,0-10.428,1.496-14.882,4.328l-72.87,46.349c-3.652,2.323-4.729,7.167-2.406,10.819c2.323,3.652,7.166,4.729,10.818,2.406
	l72.869-46.347c1.935-1.23,4.173-1.881,6.472-1.881c2.36,0,4.649,0.682,6.615,1.973l201.094,131.992
	c2.647,1.738,4.45,4.395,5.078,7.484c0.623,3.064,0.01,6.182-1.723,8.777c-2.216,3.318-5.948,5.299-9.983,5.299
	c-2.353,0-4.635-0.682-6.603-1.974L268.438,123.727c-2.577-1.692-5.905-1.715-8.507-0.061L63.261,248.76
	c-1.932,1.229-4.165,1.879-6.457,1.879c-4.104,0-7.87-2.033-10.075-5.439c-1.697-2.622-2.263-5.748-1.597-8.801
	c0.673-3.08,2.515-5.712,5.188-7.412l106.434-67.698c3.652-2.323,4.729-7.167,2.406-10.819c-2.323-3.653-7.168-4.731-10.818-2.406
	l-7.094,4.512v-35.738l15.688-15.563c7.311,2.508,14.886,3.736,22.409,3.736c17.925,0,35.544-6.916,48.519-19.787
	c18.6-18.451,24.88-46.357,16.007-71.068c-0.834-2.347-2.216-4.52-3.993-6.279c-1.761-1.746-3.928-3.109-6.275-3.938
	c-24.882-8.788-52.959-2.564-71.523,15.855c-11.002,10.913-17.964,25.486-19.604,41.034c-0.453,4.304,2.668,8.162,6.972,8.615
	c4.305,0.456,8.162-2.667,8.615-6.972c1.262-11.968,6.609-23.174,15.056-31.552c14.324-14.212,36.018-19,55.259-12.205
	c0.176,0.062,0.33,0.159,0.466,0.294c0.119,0.118,0.208,0.255,0.268,0.42c6.833,19.029,2.01,40.488-12.284,54.668
	C204.526,86.3,186.79,91.55,169.833,88.484l32.492-32.232c3.073-3.048,3.093-8.01,0.045-11.082
	c-3.049-3.073-8.01-3.093-11.082-0.045l-50.037,49.637v-6.989c0-4.328-3.509-7.837-7.837-7.837c-4.328,0-7.837,3.509-7.837,7.837
	v6.988L120.98,90.2c8.523-24.567,2.197-52.127-16.234-70.404C92.069,7.215,74.393,0,56.251,0c-7.883,0-15.63,1.325-23.03,3.938
	c-2.35,0.831-4.521,2.194-6.275,3.938c-1.77,1.756-3.148,3.92-3.985,6.255c-8.878,24.739-2.599,52.645,16.001,71.093
	c12.682,12.578,30.36,19.791,48.499,19.791c7.671,0,15.211-1.264,22.429-3.741l15.688,15.563v45.706L41.91,215.76
	c-6.226,3.959-10.518,10.101-12.089,17.293c-1.565,7.167-0.233,14.504,3.75,20.661c5.105,7.888,13.791,12.597,23.233,12.597
	c5.278,0,10.421-1.497,14.87-4.328l25.387-16.148v220.487H71.123c-4.328,0-7.837,3.509-7.837,7.837v30.004
	c0,4.328,3.509,7.837,7.837,7.837h379.951c4.328,0,7.837-3.509,7.837-7.837V474.16c0-4.328-3.509-7.837-7.837-7.837h-25.939V245.325
	l25.051,16.443c4.529,2.974,9.786,4.545,15.204,4.545c9.282,0,17.887-4.586,23.017-12.268
	C492.481,247.946,493.918,240.628,492.456,233.44z M409.461,169.271l-34.416-22.589v-45.032h34.416V169.271z M108.175,77.495
	L73.833,43.429c-3.072-3.047-8.034-3.027-11.083,0.044c-3.048,3.073-3.028,8.034,0.044,11.083l34.201,33.928
	c-3.133,0.565-6.317,0.858-9.535,0.858c-14.038,0-27.692-5.557-37.462-15.246C35.704,59.918,30.881,38.459,37.713,19.424
	c0.055-0.154,0.149-0.299,0.279-0.427c0.123-0.122,0.279-0.219,0.45-0.28c5.718-2.019,11.709-3.043,17.808-3.043
	c14.039,0,27.691,5.557,37.458,15.247C106.007,43.118,111.287,60.7,108.175,77.495z M443.237,481.998v14.329H78.96v-14.33h278.391
	c4.328,0,7.837-3.509,7.837-7.837c0-4.328-3.509-7.837-7.837-7.837h-47.055V339.501c0-4.328-3.509-7.837-7.837-7.837h-85.125
	c-4.328,0-7.837,3.509-7.837,7.837v126.823h-96.763V235.868l151.338-96.258l145.389,95.428v231.287h-15.541
	c-4.328,0-7.837,3.509-7.837,7.837c0,4.328,3.509,7.837,7.837,7.837h49.316V481.998z M225.17,466.324V347.338h69.451v118.987H225.17
	z"/>
<g>
</g>
<g>
</g>
<g>
</g>
<g>
</g>
<g>
</g>
<g>
</g>
<g>
</g>
<g>
</g>
<g>
</g>
<g>
</g>
<g>
</g>
<g>
</g>
<g>
</g>
<g>
</g>
<g>
</g>
</svg>
